<svg xmlns="http://www.w3.org/2000/svg" width="241.03000000000003" height="35" viewBox="0 0 241.03000000000003 35"><rect class="svg__rect" x="0" y="0" width="88.79" height="35" fill="#3C9AD5"/><rect class="svg__rect" x="86.79" y="0" width="154.24" height="35" fill="#EA4560"/><path class="svg__text" d="M15.69 22L14.22 22L14.22 13.47L16.14 13.47L18.60 20.01L21.06 13.47L22.97 13.47L22.97 22L21.49 22L21.49 19.19L21.64 15.43L19.12 22L18.06 22L15.55 15.43L15.69 19.19L15.69 22ZM27.44 18.00L27.44 18.00L27.44 17.52Q27.44 16.28 27.88 15.32Q28.33 14.37 29.13 13.86Q29.94 13.35 30.98 13.35Q32.02 13.35 32.83 13.85Q33.64 14.35 34.07 15.29Q34.51 16.23 34.52 17.48L34.52 17.48L34.52 17.96Q34.52 19.21 34.09 20.16Q33.65 21.10 32.85 21.61Q32.04 22.12 30.99 22.12L30.99 22.12Q29.96 22.12 29.14 21.61Q28.33 21.10 27.89 20.17Q27.45 19.23 27.44 18.00ZM28.92 17.46L28.92 17.96Q28.92 19.36 29.47 20.13Q30.02 20.90 30.99 20.90L30.99 20.90Q31.98 20.90 32.51 20.15Q33.04 19.40 33.04 17.96L33.04 17.96L33.04 17.51Q33.04 16.09 32.50 15.34Q31.97 14.58 30.98 14.58L30.98 14.58Q30.02 14.58 29.48 15.33Q28.94 16.09 28.92 17.46L28.92 17.46ZM41.44 22L38.98 22L38.98 13.47L41.50 13.47Q42.64 13.47 43.51 13.97Q44.39 14.48 44.87 15.40Q45.35 16.33 45.35 17.52L45.35 17.52L45.35 17.95Q45.35 19.16 44.86 20.08Q44.38 21.00 43.49 21.50Q42.59 22 41.44 22L41.44 22ZM40.47 14.66L40.47 20.82L41.43 20.82Q42.60 20.82 43.22 20.09Q43.85 19.36 43.86 17.99L43.86 17.99L43.86 17.52Q43.86 16.13 43.26 15.40Q42.65 14.66 41.50 14.66L41.50 14.66L40.47 14.66ZM55.39 22L49.81 22L49.81 13.47L55.35 13.47L55.35 14.66L51.30 14.66L51.30 17.02L54.80 17.02L54.80 18.19L51.30 18.19L51.30 20.82L55.39 20.82L55.39 22ZM64.94 22L59.59 22L59.59 13.47L61.07 13.47L61.07 20.82L64.94 20.82L64.94 22ZM68.63 19.42L68.63 19.42L70.12 19.42Q70.12 20.15 70.60 20.55Q71.08 20.95 71.97 20.95L71.97 20.95Q72.75 20.95 73.14 20.63Q73.53 20.32 73.53 19.80L73.53 19.80Q73.53 19.24 73.13 18.94Q72.73 18.63 71.70 18.32Q70.67 18.01 70.06 17.63L70.06 17.63Q68.90 16.90 68.90 15.72L68.90 15.72Q68.90 14.69 69.74 14.02Q70.58 13.35 71.92 13.35L71.92 13.35Q72.81 13.35 73.51 13.68Q74.21 14.01 74.60 14.61Q75.00 15.22 75.00 15.96L75.00 15.96L73.53 15.96Q73.53 15.29 73.11 14.91Q72.69 14.54 71.91 14.54L71.91 14.54Q71.18 14.54 70.78 14.85Q70.38 15.16 70.38 15.71L70.38 15.71Q70.38 16.18 70.81 16.50Q71.25 16.81 72.24 17.10Q73.24 17.40 73.84 17.78Q74.45 18.16 74.73 18.65Q75.01 19.13 75.01 19.79L75.01 19.79Q75.01 20.86 74.19 21.49Q73.37 22.12 71.97 22.12L71.97 22.12Q71.05 22.12 70.27 21.77Q69.49 21.43 69.06 20.83Q68.63 20.22 68.63 19.42Z" fill="#FFFFFF"/><path class="svg__text" d="M100.55 17.80L100.55 17.80Q100.55 16.54 101.15 15.54Q101.75 14.55 102.80 13.99Q103.85 13.43 105.17 13.43L105.17 13.43Q106.32 13.43 107.24 13.84Q108.17 14.25 108.78 15.02L108.78 15.02L107.27 16.39Q106.46 15.40 105.29 15.40L105.29 15.40Q104.60 15.40 104.07 15.70Q103.54 16 103.24 16.54Q102.95 17.09 102.95 17.80L102.95 17.80Q102.95 18.51 103.24 19.05Q103.54 19.60 104.07 19.90Q104.60 20.20 105.29 20.20L105.29 20.20Q106.46 20.20 107.27 19.22L107.27 19.22L108.78 20.58Q108.17 21.35 107.25 21.76Q106.32 22.17 105.17 22.17L105.17 22.17Q103.85 22.17 102.80 21.61Q101.75 21.05 101.15 20.05Q100.55 19.06 100.55 17.80ZM112.89 17.80L112.89 17.80Q112.89 16.55 113.49 15.55Q114.10 14.56 115.16 14.00Q116.22 13.43 117.55 13.43L117.55 13.43Q118.88 13.43 119.95 14.00Q121.01 14.56 121.62 15.55Q122.22 16.55 122.22 17.80L122.22 17.80Q122.22 19.05 121.62 20.04Q121.01 21.04 119.95 21.60Q118.89 22.17 117.55 22.17L117.55 22.17Q116.22 22.17 115.16 21.60Q114.10 21.04 113.49 20.04Q112.89 19.05 112.89 17.80ZM115.29 17.80L115.29 17.80Q115.29 18.51 115.59 19.05Q115.89 19.60 116.41 19.90Q116.92 20.20 117.55 20.20L117.55 20.20Q118.19 20.20 118.71 19.90Q119.22 19.60 119.52 19.05Q119.82 18.51 119.82 17.80L119.82 17.80Q119.82 17.09 119.52 16.54Q119.22 16 118.71 15.70Q118.19 15.40 117.55 15.40L117.55 15.40Q116.92 15.40 116.40 15.70Q115.89 16 115.59 16.54Q115.29 17.09 115.29 17.80ZM129.15 22L126.95 22L126.95 13.60L128.91 13.60L131.86 18.45L134.75 13.60L136.70 13.60L136.72 22L134.54 22L134.52 17.55L132.35 21.17L131.30 21.17L129.15 17.67L129.15 22ZM144.26 22L141.88 22L141.88 13.60L144.26 13.60L144.26 22ZM151.77 22L149.43 22L149.43 13.60L151.39 13.60L155.10 18.07L155.10 13.60L157.43 13.60L157.43 22L155.48 22L151.77 17.52L151.77 22ZM162.16 17.80L162.16 17.80Q162.16 16.54 162.76 15.54Q163.36 14.55 164.43 13.99Q165.50 13.43 166.84 13.43L166.84 13.43Q168.02 13.43 168.95 13.83Q169.89 14.22 170.51 14.97L170.51 14.97L169.00 16.33Q168.16 15.40 166.98 15.40L166.98 15.40Q166.97 15.40 166.96 15.40L166.96 15.40Q165.88 15.40 165.22 16.06Q164.56 16.71 164.56 17.80L164.56 17.80Q164.56 18.50 164.86 19.04Q165.16 19.59 165.70 19.89Q166.24 20.20 166.94 20.20L166.94 20.20Q167.62 20.20 168.22 19.93L168.22 19.93L168.22 17.62L170.32 17.62L170.32 21.10Q169.60 21.61 168.66 21.89Q167.73 22.17 166.79 22.17L166.79 22.17Q165.47 22.17 164.41 21.61Q163.36 21.05 162.76 20.05Q162.16 19.06 162.16 17.80ZM181.70 21.24L181.70 21.24L182.48 19.49Q183.04 19.86 183.78 20.09Q184.53 20.32 185.25 20.32L185.25 20.32Q186.61 20.32 186.62 19.64L186.62 19.64Q186.62 19.28 186.23 19.11Q185.84 18.93 184.97 18.74L184.97 18.74Q184.02 18.53 183.39 18.30Q182.75 18.06 182.30 17.55Q181.84 17.03 181.84 16.16L181.84 16.16Q181.84 15.39 182.26 14.77Q182.68 14.15 183.52 13.79Q184.35 13.43 185.56 13.43L185.56 13.43Q186.38 13.43 187.19 13.62Q188.00 13.80 188.61 14.17L188.61 14.17L187.88 15.93Q186.68 15.28 185.55 15.28L185.55 15.28Q184.84 15.28 184.52 15.49Q184.19 15.70 184.19 16.04L184.19 16.04Q184.19 16.37 184.58 16.54Q184.96 16.71 185.81 16.89L185.81 16.89Q186.77 17.10 187.40 17.33Q188.03 17.56 188.49 18.07Q188.96 18.58 188.96 19.46L188.96 19.46Q188.96 20.21 188.54 20.83Q188.12 21.44 187.28 21.80Q186.44 22.17 185.24 22.17L185.24 22.17Q184.22 22.17 183.26 21.92Q182.29 21.67 181.70 21.24ZM193.10 17.80L193.10 17.80Q193.10 16.55 193.71 15.55Q194.31 14.56 195.38 14.00Q196.44 13.43 197.77 13.43L197.77 13.43Q199.10 13.43 200.16 14.00Q201.23 14.56 201.83 15.55Q202.44 16.55 202.44 17.80L202.44 17.80Q202.44 19.05 201.83 20.04Q201.23 21.04 200.17 21.60Q199.10 22.17 197.77 22.17L197.77 22.17Q196.44 22.17 195.38 21.60Q194.31 21.04 193.71 20.04Q193.10 19.05 193.10 17.80ZM195.50 17.80L195.50 17.80Q195.50 18.51 195.80 19.05Q196.10 19.60 196.62 19.90Q197.14 20.20 197.77 20.20L197.77 20.20Q198.41 20.20 198.92 19.90Q199.44 19.60 199.74 19.05Q200.04 18.51 200.04 17.80L200.04 17.80Q200.04 17.09 199.74 16.54Q199.44 16 198.92 15.70Q198.41 15.40 197.77 15.40L197.77 15.40Q197.13 15.40 196.62 15.70Q196.10 16 195.80 16.54Q195.50 17.09 195.50 17.80ZM206.74 17.80L206.74 17.80Q206.74 16.55 207.34 15.55Q207.95 14.56 209.01 14.00Q210.07 13.43 211.40 13.43L211.40 13.43Q212.73 13.43 213.80 14.00Q214.86 14.56 215.47 15.55Q216.07 16.55 216.07 17.80L216.07 17.80Q216.07 19.05 215.47 20.04Q214.86 21.04 213.80 21.60Q212.74 22.17 211.40 22.17L211.40 22.17Q210.07 22.17 209.01 21.60Q207.95 21.04 207.34 20.04Q206.74 19.05 206.74 17.80ZM209.14 17.80L209.14 17.80Q209.14 18.51 209.44 19.05Q209.74 19.60 210.26 19.90Q210.77 20.20 211.40 20.20L211.40 20.20Q212.04 20.20 212.56 19.90Q213.07 19.60 213.37 19.05Q213.67 18.51 213.67 17.80L213.67 17.80Q213.67 17.09 213.37 16.54Q213.07 16 212.56 15.70Q212.04 15.40 211.40 15.40L211.40 15.40Q210.77 15.40 210.25 15.70Q209.74 16 209.44 16.54Q209.14 17.09 209.14 17.80ZM223.13 22L220.80 22L220.80 13.60L222.76 13.60L226.47 18.07L226.47 13.60L228.79 13.60L228.79 22L226.84 22L223.13 17.52L223.13 22Z" fill="#FFFFFF" x="99.79"/></svg>