<svg xmlns="http://www.w3.org/2000/svg" width="213.82999999999998" height="35" viewBox="0 0 213.82999999999998 35"><rect class="svg__rect" x="0" y="0" width="88.79" height="35" fill="#3C9AD5"/><rect class="svg__rect" x="86.79" y="0" width="127.03999999999999" height="35" fill="#5D9741"/><path class="svg__text" d="M15.69 22L14.22 22L14.22 13.47L16.14 13.47L18.60 20.01L21.06 13.47L22.97 13.47L22.97 22L21.49 22L21.49 19.19L21.64 15.43L19.12 22L18.06 22L15.55 15.43L15.69 19.19L15.69 22ZM27.44 18.00L27.44 18.00L27.44 17.52Q27.44 16.28 27.88 15.32Q28.33 14.37 29.13 13.86Q29.94 13.35 30.98 13.35Q32.02 13.35 32.83 13.85Q33.64 14.35 34.07 15.29Q34.51 16.23 34.52 17.48L34.52 17.48L34.52 17.96Q34.52 19.21 34.09 20.16Q33.65 21.10 32.85 21.61Q32.04 22.12 30.99 22.12L30.99 22.12Q29.96 22.12 29.14 21.61Q28.33 21.10 27.89 20.17Q27.45 19.23 27.44 18.00ZM28.92 17.46L28.92 17.96Q28.92 19.36 29.47 20.13Q30.02 20.90 30.99 20.90L30.99 20.90Q31.98 20.90 32.51 20.15Q33.04 19.40 33.04 17.96L33.04 17.96L33.04 17.51Q33.04 16.09 32.50 15.34Q31.97 14.58 30.98 14.58L30.98 14.58Q30.02 14.58 29.48 15.33Q28.94 16.09 28.92 17.46L28.92 17.46ZM41.44 22L38.98 22L38.98 13.47L41.50 13.47Q42.64 13.47 43.51 13.97Q44.39 14.48 44.87 15.40Q45.35 16.33 45.35 17.52L45.35 17.52L45.35 17.95Q45.35 19.16 44.86 20.08Q44.38 21.00 43.49 21.50Q42.59 22 41.44 22L41.44 22ZM40.47 14.66L40.47 20.82L41.43 20.82Q42.60 20.82 43.22 20.09Q43.85 19.36 43.86 17.99L43.86 17.99L43.86 17.52Q43.86 16.13 43.26 15.40Q42.65 14.66 41.50 14.66L41.50 14.66L40.47 14.66ZM55.39 22L49.81 22L49.81 13.47L55.35 13.47L55.35 14.66L51.30 14.66L51.30 17.02L54.80 17.02L54.80 18.19L51.30 18.19L51.30 20.82L55.39 20.82L55.39 22ZM64.94 22L59.59 22L59.59 13.47L61.07 13.47L61.07 20.82L64.94 20.82L64.94 22ZM68.63 19.42L68.63 19.42L70.12 19.42Q70.12 20.15 70.60 20.55Q71.08 20.95 71.97 20.95L71.97 20.95Q72.75 20.95 73.14 20.63Q73.53 20.32 73.53 19.80L73.53 19.80Q73.53 19.24 73.13 18.94Q72.73 18.63 71.70 18.32Q70.67 18.01 70.06 17.63L70.06 17.63Q68.90 16.90 68.90 15.72L68.90 15.72Q68.90 14.69 69.74 14.02Q70.58 13.35 71.92 13.35L71.92 13.35Q72.81 13.35 73.51 13.68Q74.21 14.01 74.60 14.61Q75.00 15.22 75.00 15.96L75.00 15.96L73.53 15.96Q73.53 15.29 73.11 14.91Q72.69 14.54 71.91 14.54L71.91 14.54Q71.18 14.54 70.78 14.85Q70.38 15.16 70.38 15.71L70.38 15.71Q70.38 16.18 70.81 16.50Q71.25 16.81 72.24 17.10Q73.24 17.40 73.84 17.78Q74.45 18.16 74.73 18.65Q75.01 19.13 75.01 19.79L75.01 19.79Q75.01 20.86 74.19 21.49Q73.37 22.12 71.97 22.12L71.97 22.12Q71.05 22.12 70.27 21.77Q69.49 21.43 69.06 20.83Q68.63 20.22 68.63 19.42Z" fill="#FFFFFF"/><path class="svg__text" d="M102.40 22L99.97 22L103.68 13.60L106.02 13.60L109.74 22L107.27 22L106.61 20.37L103.06 20.37L102.40 22ZM104.83 15.93L103.75 18.61L105.91 18.61L104.83 15.93ZM116.48 22L112.88 13.60L115.46 13.60L117.74 19.07L120.06 13.60L122.41 13.60L118.81 22L116.48 22ZM127.98 22L125.56 22L129.27 13.60L131.61 13.60L135.33 22L132.86 22L132.20 20.37L128.65 20.37L127.98 22ZM130.42 15.93L129.34 18.61L131.50 18.61L130.42 15.93ZM141.86 22L139.48 22L139.48 13.60L141.86 13.60L141.86 22ZM153.42 22L147.03 22L147.03 13.60L149.41 13.60L149.41 20.11L153.42 20.11L153.42 22ZM159.26 22L156.83 22L160.54 13.60L162.88 13.60L166.60 22L164.13 22L163.47 20.37L159.92 20.37L159.26 22ZM161.69 15.93L160.61 18.61L162.77 18.61L161.69 15.93ZM175.29 22L170.75 22L170.75 13.60L175.05 13.60Q176.66 13.60 177.50 14.19Q178.34 14.79 178.34 15.79L178.34 15.79Q178.34 16.39 178.04 16.87Q177.75 17.34 177.21 17.62L177.21 17.62Q177.93 17.87 178.34 18.41Q178.74 18.94 178.74 19.70L178.74 19.70Q178.74 20.80 177.86 21.40Q176.97 22 175.29 22L175.29 22ZM173.11 18.58L173.11 20.28L175.10 20.28Q176.35 20.28 176.35 19.43L176.35 19.43Q176.35 18.58 175.10 18.58L175.10 18.58L173.11 18.58ZM173.11 15.31L173.11 16.94L174.74 16.94Q175.94 16.94 175.94 16.12L175.94 16.12Q175.94 15.31 174.74 15.31L174.74 15.31L173.11 15.31ZM189.85 22L183.46 22L183.46 13.60L185.84 13.60L185.84 20.11L189.85 20.11L189.85 22ZM201.01 22L194.27 22L194.27 13.60L200.86 13.60L200.86 15.44L196.62 15.44L196.62 16.85L200.35 16.85L200.35 18.63L196.62 18.63L196.62 20.17L201.01 20.17L201.01 22Z" fill="#FFFFFF" x="99.79"/></svg>