<svg xmlns="http://www.w3.org/2000/svg" width="244.75" height="35" viewBox="0 0 244.75 35"><rect class="svg__rect" x="0" y="0" width="76.5" height="35" fill="#3C9AD5"/><rect class="svg__rect" x="74.5" y="0" width="170.25" height="35" fill="#A7BFC1"/><path class="svg__text" d="M15.70 22L14.22 22L14.22 13.47L17.48 13.47Q18.91 13.47 19.75 14.21Q20.59 14.96 20.59 16.18L20.59 16.18Q20.59 17.44 19.77 18.13Q18.95 18.83 17.46 18.83L17.46 18.83L15.70 18.83L15.70 22ZM15.70 14.66L15.70 17.64L17.48 17.64Q18.27 17.64 18.69 17.27Q19.10 16.90 19.10 16.19L19.10 16.19Q19.10 15.50 18.68 15.09Q18.26 14.68 17.52 14.66L17.52 14.66L15.70 14.66ZM25.65 22L24.11 22L27.34 13.47L28.67 13.47L31.89 22L30.35 22L29.65 20.01L26.35 20.01L25.65 22ZM28.00 15.28L26.76 18.82L29.23 18.82L28.00 15.28ZM37.33 22L35.85 22L35.85 13.47L39.11 13.47Q40.54 13.47 41.38 14.21Q42.23 14.96 42.23 16.18L42.23 16.18Q42.23 17.44 41.40 18.13Q40.58 18.83 39.10 18.83L39.10 18.83L37.33 18.83L37.33 22ZM37.33 14.66L37.33 17.64L39.11 17.64Q39.90 17.64 40.32 17.27Q40.74 16.90 40.74 16.19L40.74 16.19Q40.74 15.50 40.31 15.09Q39.89 14.68 39.15 14.66L39.15 14.66L37.33 14.66ZM52.09 22L46.51 22L46.51 13.47L52.05 13.47L52.05 14.66L47.99 14.66L47.99 17.02L51.49 17.02L51.49 18.19L47.99 18.19L47.99 20.82L52.09 20.82L52.09 22ZM57.76 22L56.28 22L56.28 13.47L59.28 13.47Q60.76 13.47 61.56 14.13Q62.36 14.79 62.36 16.05L62.36 16.05Q62.36 16.90 61.95 17.48Q61.54 18.06 60.80 18.37L60.80 18.37L62.72 21.92L62.72 22L61.13 22L59.42 18.71L57.76 18.71L57.76 22ZM57.76 14.66L57.76 17.52L59.29 17.52Q60.04 17.52 60.46 17.15Q60.88 16.77 60.88 16.11L60.88 16.11Q60.88 15.43 60.49 15.05Q60.10 14.68 59.33 14.66L59.33 14.66L57.76 14.66Z" fill="#FFFFFF"/><path class="svg__text" d="M88.10 21.24L88.10 21.24L88.88 19.49Q89.44 19.86 90.19 20.09Q90.93 20.32 91.65 20.32L91.65 20.32Q93.02 20.32 93.02 19.64L93.02 19.64Q93.02 19.28 92.63 19.11Q92.24 18.93 91.38 18.74L91.38 18.74Q90.43 18.53 89.79 18.30Q89.16 18.06 88.70 17.55Q88.25 17.03 88.25 16.16L88.25 16.16Q88.25 15.39 88.67 14.77Q89.09 14.15 89.92 13.79Q90.76 13.43 91.96 13.43L91.96 13.43Q92.79 13.43 93.60 13.62Q94.40 13.80 95.02 14.17L95.02 14.17L94.28 15.93Q93.08 15.28 91.95 15.28L91.95 15.28Q91.24 15.28 90.92 15.49Q90.60 15.70 90.60 16.04L90.60 16.04Q90.60 16.37 90.98 16.54Q91.37 16.71 92.22 16.89L92.22 16.89Q93.18 17.10 93.81 17.33Q94.44 17.56 94.90 18.07Q95.36 18.58 95.36 19.46L95.36 19.46Q95.36 20.21 94.94 20.83Q94.52 21.44 93.68 21.80Q92.84 22.17 91.64 22.17L91.64 22.17Q90.62 22.17 89.66 21.92Q88.70 21.67 88.10 21.24ZM99.51 17.80L99.51 17.80Q99.51 16.54 100.11 15.54Q100.71 14.55 101.76 13.99Q102.81 13.43 104.13 13.43L104.13 13.43Q105.28 13.43 106.20 13.84Q107.13 14.25 107.74 15.02L107.74 15.02L106.23 16.39Q105.42 15.40 104.25 15.40L104.25 15.40Q103.56 15.40 103.03 15.70Q102.50 16 102.20 16.54Q101.91 17.09 101.91 17.80L101.91 17.80Q101.91 18.51 102.20 19.05Q102.50 19.60 103.03 19.90Q103.56 20.20 104.25 20.20L104.25 20.20Q105.42 20.20 106.23 19.22L106.23 19.22L107.74 20.58Q107.13 21.35 106.21 21.76Q105.28 22.17 104.13 22.17L104.13 22.17Q102.81 22.17 101.76 21.61Q100.71 21.05 100.11 20.05Q99.51 19.06 99.51 17.80ZM114.66 22L112.28 22L112.28 13.60L114.66 13.60L114.66 22ZM126.57 22L119.83 22L119.83 13.60L126.42 13.60L126.42 15.44L122.19 15.44L122.19 16.85L125.92 16.85L125.92 18.63L122.19 18.63L122.19 20.17L126.57 20.17L126.57 22ZM133.71 22L131.38 22L131.38 13.60L133.34 13.60L137.05 18.07L137.05 13.60L139.37 13.60L139.37 22L137.42 22L133.71 17.52L133.71 22ZM144.11 17.80L144.11 17.80Q144.11 16.54 144.70 15.54Q145.30 14.55 146.35 13.99Q147.40 13.43 148.72 13.43L148.72 13.43Q149.88 13.43 150.80 13.84Q151.72 14.25 152.34 15.02L152.34 15.02L150.83 16.39Q150.01 15.40 148.85 15.40L148.85 15.40Q148.16 15.40 147.63 15.70Q147.09 16 146.80 16.54Q146.50 17.09 146.50 17.80L146.50 17.80Q146.50 18.51 146.80 19.05Q147.09 19.60 147.63 19.90Q148.16 20.20 148.85 20.20L148.85 20.20Q150.01 20.20 150.83 19.22L150.83 19.22L152.34 20.58Q151.73 21.35 150.80 21.76Q149.88 22.17 148.72 22.17L148.72 22.17Q147.40 22.17 146.35 21.61Q145.30 21.05 144.70 20.05Q144.11 19.06 144.11 17.80ZM163.62 22L156.87 22L156.87 13.60L163.47 13.60L163.47 15.44L159.23 15.44L159.23 16.85L162.96 16.85L162.96 18.63L159.23 18.63L159.23 20.17L163.62 20.17L163.62 22ZM172.39 22L168.42 22L168.42 13.60L172.39 13.60Q173.78 13.60 174.84 14.12Q175.91 14.63 176.50 15.58Q177.09 16.53 177.09 17.80L177.09 17.80Q177.09 19.07 176.50 20.02Q175.91 20.97 174.84 21.48Q173.78 22 172.39 22L172.39 22ZM170.80 15.50L170.80 20.10L172.30 20.10Q173.38 20.10 174.03 19.49Q174.69 18.88 174.69 17.80L174.69 17.80Q174.69 16.72 174.03 16.11Q173.38 15.50 172.30 15.50L172.30 15.50L170.80 15.50ZM184.20 22L181.82 22L181.82 13.60L184.20 13.60L184.20 22ZM191.75 22L189.37 22L189.37 13.60L193.21 13.60Q194.36 13.60 195.19 13.98Q196.03 14.35 196.49 15.06Q196.95 15.76 196.95 16.71L196.95 16.71Q196.95 17.62 196.52 18.30Q196.09 18.98 195.30 19.36L195.30 19.36L197.11 22L194.57 22L193.04 19.77L191.75 19.77L191.75 22ZM191.75 15.47L191.75 17.93L193.07 17.93Q193.80 17.93 194.17 17.61Q194.54 17.29 194.54 16.71L194.54 16.71Q194.54 16.12 194.17 15.79Q193.80 15.47 193.07 15.47L193.07 15.47L191.75 15.47ZM208.48 22L201.73 22L201.73 13.60L208.32 13.60L208.32 15.44L204.09 15.44L204.09 16.85L207.82 16.85L207.82 18.63L204.09 18.63L204.09 20.17L208.48 20.17L208.48 22ZM212.85 17.80L212.85 17.80Q212.85 16.54 213.45 15.54Q214.05 14.55 215.10 13.99Q216.15 13.43 217.47 13.43L217.47 13.43Q218.63 13.43 219.55 13.84Q220.47 14.25 221.09 15.02L221.09 15.02L219.57 16.39Q218.76 15.40 217.59 15.40L217.59 15.40Q216.91 15.40 216.38 15.70Q215.84 16 215.55 16.54Q215.25 17.09 215.25 17.80L215.25 17.80Q215.25 18.51 215.55 19.05Q215.84 19.60 216.38 19.90Q216.91 20.20 217.59 20.20L217.59 20.20Q218.76 20.20 219.57 19.22L219.57 19.22L221.09 20.58Q220.48 21.35 219.55 21.76Q218.63 22.17 217.47 22.17L217.47 22.17Q216.15 22.17 215.10 21.61Q214.05 21.05 213.45 20.05Q212.85 19.06 212.85 17.80ZM227.41 15.48L224.83 15.48L224.83 13.60L232.35 13.60L232.35 15.48L229.79 15.48L229.79 22L227.41 22L227.41 15.48Z" fill="#FFFFFF" x="87.5"/></svg>